<svg width="120" height="120" viewBox="0 0 120 120" fill="none" xmlns="http://www.w3.org/2000/svg">
<rect width="120" height="120" rx="60" fill="black"/>
<g clip-path="url(#clip0_240_3)">
<path d="M44.6662 58.7034C44.3225 59.0472 44.1294 59.5134 44.1294 59.9995C44.1294 60.4857 44.3225 60.9519 44.6662 61.2957L55.0373 71.6669C55.2065 71.842 55.4088 71.9816 55.6324 72.0777C55.8561 72.1738 56.0967 72.2244 56.3401 72.2265C56.5835 72.2286 56.8249 72.1822 57.0503 72.09C57.2756 71.9979 57.4803 71.8617 57.6524 71.6896C57.8245 71.5175 57.9607 71.3128 58.0528 71.0874C58.145 70.8621 58.1914 70.6207 58.1893 70.3773C58.1872 70.1339 58.1366 69.8933 58.0405 69.6696C57.9444 69.446 57.8048 69.2437 57.6297 69.0745L50.388 61.8329H74.6668C75.1531 61.8329 75.6194 61.6397 75.9632 61.2959C76.307 60.9521 76.5002 60.4858 76.5002 59.9995C76.5002 59.5133 76.307 59.047 75.9632 58.7032C75.6194 58.3594 75.1531 58.1662 74.6668 58.1662H50.388L57.6297 50.9245C57.9636 50.5788 58.1484 50.1157 58.1442 49.635C58.1401 49.1543 57.9473 48.6944 57.6073 48.3545C57.2674 48.0146 56.8076 47.8218 56.3269 47.8176C55.8462 47.8135 55.3831 47.9982 55.0373 48.3322L44.6662 58.7034Z" fill="white"/>
</g>
<defs>
<clipPath id="clip0_240_3">
<rect width="44" height="44" fill="white" transform="matrix(0 -1 1 0 38 82)"/>
</clipPath>
</defs>
</svg>
