<svg width="120" height="120" viewBox="0 0 120 120" fill="none" xmlns="http://www.w3.org/2000/svg">
<rect x="120" y="120" width="120" height="120" rx="60" transform="rotate(180 120 120)" fill="black"/>
<g clip-path="url(#clip0_240_8)">
<path d="M75.3338 61.2966C75.6775 60.9528 75.8706 60.4866 75.8706 60.0005C75.8706 59.5143 75.6775 59.0481 75.3338 58.7043L64.9627 48.3331C64.7935 48.158 64.5912 48.0184 64.3676 47.9223C64.1439 47.8262 63.9033 47.7756 63.6599 47.7735C63.4165 47.7714 63.1751 47.8178 62.9497 47.91C62.7244 48.0021 62.5197 48.1383 62.3476 48.3104C62.1755 48.4825 62.0393 48.6872 61.9472 48.9126C61.855 49.1379 61.8086 49.3793 61.8107 49.6227C61.8128 49.8661 61.8634 50.1067 61.9595 50.3304C62.0556 50.554 62.1952 50.7563 62.3703 50.9255L69.612 58.1671H45.3332C44.8469 58.1671 44.3806 58.3603 44.0368 58.7041C43.693 59.0479 43.4998 59.5142 43.4998 60.0005C43.4998 60.4867 43.693 60.953 44.0368 61.2968C44.3806 61.6406 44.8469 61.8338 45.3332 61.8338H69.612L62.3703 69.0755C62.0364 69.4212 61.8516 69.8843 61.8558 70.365C61.8599 70.8457 62.0527 71.3056 62.3927 71.6455C62.7326 71.9854 63.1924 72.1782 63.6731 72.1824C64.1538 72.1865 64.6169 72.0018 64.9627 71.6678L75.3338 61.2966Z" fill="white"/>
</g>
<defs>
<clipPath id="clip0_240_8">
<rect width="44" height="44" fill="white" transform="matrix(0 1 -1 0 82 38)"/>
</clipPath>
</defs>
</svg>
